<svg xmlns="http://www.w3.org/2000/svg" xmlns:xlink="http://www.w3.org/1999/xlink"><symbol id="sprite-Reddit" viewBox="0 0 22 22"><path d="M12.95.5a2.1 2.1 0 0 0-1.63.83c-.39.5-.6 1.1-.76 1.73a15 15 0 0 0-.34 3.17c-1.8.12-3.43.68-4.79 1.55a2.8 2.8 0 0 0-1.85-.75 2.4 2.4 0 0 0-1.92 1 3.8 3.8 0 0 0 .27 4.64 7 7 0 0 0-.12 1.18c0 4.23 4.11 7.65 9.19 7.65s9.2-3.43 9.2-7.65q-.01-.6-.13-1.18a3.8 3.8 0 0 0 .27-4.63 2.4 2.4 0 0 0-1.92-1.01c-.64 0-1.3.26-1.85.75a10 10 0 0 0-4.77-1.56c.03-.93.1-1.9.27-2.64q.17-.7.39-.98c.22-.28.25-.26.49-.26.52 0 .58.18.9.6.15.22.34.5.63.75.29.27.72.5 1.19.5v-1.85c-.13 0-.16 0-.24-.09q-.13-.13-.4-.51c-.35-.5-1.05-1.24-2.08-1.24m5.06.17c-1.22 0-2.2 1.16-2.2 2.6 0 1.42.98 2.58 2.2 2.58s2.18-1.16 2.18-2.59-.98-2.59-2.19-2.59m0 .92c.78 0 1.41.75 1.41 1.67s-.63 1.67-1.4 1.67-1.42-.75-1.42-1.67.64-1.67 1.41-1.67m-7 6.07c4.3 0 7.95 2.84 7.95 6.19s-3.64 6.18-7.95 6.18-7.95-2.83-7.95-6.18 3.64-6.19 7.95-6.19m-7.4.84q.34 0 .66.17-1.18 1.05-1.82 2.42c-.3-.72-.21-1.6.15-2.07a1.2 1.2 0 0 1 1.02-.52m14.78 0q.62 0 1.02.51c.36.48.44 1.37.15 2.08a8 8 0 0 0-1.82-2.42 2 2 0 0 1 .65-.17m-10.5 2.3c-.78 0-1.41.75-1.41 1.67s.63 1.67 1.4 1.67 1.42-.75 1.42-1.67-.63-1.67-1.41-1.67m6.22 0c-.78 0-1.4.75-1.4 1.67s.62 1.67 1.4 1.67 1.41-.75 1.41-1.67-.63-1.67-1.4-1.67m-6.99 5.67c.5 1.2 2.03 2.38 3.87 2.38s3.4-1.17 3.89-2.38c-.9.68-2.32 1.15-3.89 1.15s-2.97-.47-3.87-1.15"/></symbol><use xlink:href="#sprite-Reddit" width="22" height="22"/><view id="sprite-Reddit-view" viewBox="0 0 22 22"/><symbol id="sprite-arrow-down" fill="none" viewBox="0 0 22 22"><path d="m21 7-10 9-10-9"/></symbol><use xlink:href="#sprite-arrow-down" width="22" height="22" y="22"/><view id="sprite-arrow-down-view" viewBox="0 22 22 22"/><symbol id="sprite-arrow" fill="currentColor" viewBox="0 0 10 10"><g clip-path="url(#a)"><path d="m1 9 8-8m0 0h-7.95m7.95 0v7.95"/></g><defs><clipPath id="a"><path d="M0 0h10v10h-10z"/></clipPath></defs></symbol><use xlink:href="#sprite-arrow" width="10" height="10" y="44"/><view id="sprite-arrow-view" viewBox="0 44 10 10"/><symbol id="sprite-cross" fill="none" viewBox="0 0 22 22"><path stroke="#316DC2" stroke-linecap="round" stroke-linejoin="round" d="m2 20 9-9m0 0 9-9m-9 9 9 9m-9-9-9-9"/></symbol><use xlink:href="#sprite-cross" width="22" height="22" y="54"/><view id="sprite-cross-view" viewBox="0 54 22 22"/><symbol id="sprite-logo" fill="none" viewBox="0 0 410 404"><path fill="url(#a)" d="m399.64 59.53-184 329.02a10 10 0 0 1-17.41.07l-187.65-329.06a10 10 0 0 1 10.45-14.8l184.2 32.92a10 10 0 0 0 3.55 0l180.34-32.87a10 10 0 0 1 10.52 14.72"/><path fill="url(#b)" d="m292.96 1.57-136.16 26.69a5 5 0 0 0-4.03 4.6l-8.38 141.47a5 5 0 0 0 6.12 5.17l37.91-8.75a5 5 0 0 1 6.02 5.87l-11.26 55.15a5 5 0 0 0 6.35 5.79l23.42-7.11a5 5 0 0 1 6.35 5.8l-17.9 86.62c-1.12 5.42 6.09 8.38 9.1 3.73l2-3.1 110.95-221.43a5 5 0 0 0-5.41-7.15l-39.03 7.53a5 5 0 0 1-5.75-6.3l25.47-88.28a5 5 0 0 0-5.77-6.3"/><defs><linearGradient id="a" x1="6" x2="235" y1="33" y2="344" gradientUnits="userSpaceOnUse"><stop stop-color="#41D1FF"/><stop offset="1" stop-color="#BD34FE"/></linearGradient><linearGradient id="b" x1="194.651" x2="236.076" y1="8.818" y2="292.989" gradientUnits="userSpaceOnUse"><stop stop-color="#FFEA83"/><stop offset=".083" stop-color="#FFDD35"/><stop offset="1" stop-color="#FFA800"/></linearGradient></defs></symbol><use xlink:href="#sprite-logo" width="410" height="404" y="76"/><view id="sprite-logo-view" viewBox="0 76 410 404"/><symbol id="sprite-logotype" fill="none" viewBox="0 0 52 52"><rect width="52" height="52" fill="#fff" rx="26"/><path fill="#316DC2" d="M11.92 19.8c-.85.6-1.35 1.9-.41 3.43s14.38 11.9 14.88 12.2.98.33 2.24-.68 11.74-8.88 12-9.12c.44-.38.54-1.3 0-1.73 0 0-12.7 9.5-13.11 9.89-.42.38-1.06-.24-.94-1.06s.2-.9 1.82-2.16l11.18-8.48c.47-.35.48-.96-.3-1.5l-13.01-9.27c-.4-.3-.93-.55-1.73.02-.81.58-11.06 7.35-12.62 8.46"/><path fill="#316DC2" d="M26.39 36.43c-.33-.19-6.23-4.71-10.51-8.24v7.35c0 5.37 15.12 8.24 20.13 1.64v-7.03a778 778 0 0 0-7.38 5.61c-1.26 1-1.75.96-2.24.67"/><path fill="#98B8E6" d="M32.78 28.37s2.25 1.13 2.41 5.68l-1.09-.3-.87 1.85c-.37-4.98-2.37-5.7-2.37-5.7z"/></symbol><use xlink:href="#sprite-logotype" width="52" height="52" y="480"/><view id="sprite-logotype-view" viewBox="0 480 52 52"/><symbol id="sprite-menu" viewBox="0 0 22 22"><path d="M1 6h20m-20 5h20m-20 5h20"/></symbol><use xlink:href="#sprite-menu" width="22" height="22" y="532"/><view id="sprite-menu-view" viewBox="0 532 22 22"/><symbol id="sprite-minus" fill="none" viewBox="0 0 22 22"><path d="M1 11h20"/></symbol><use xlink:href="#sprite-minus" width="22" height="22" y="554"/><view id="sprite-minus-view" viewBox="0 554 22 22"/><symbol id="sprite-odnoklassniki" viewBox="0 0 22 22"><path d="M11 3.33c1.32 0 2.4 1.05 2.4 2.35s-1.08 2.35-2.4 2.35-2.4-1.06-2.4-2.35c0-1.3 1.08-2.35 2.4-2.35m0 8.02c3.2 0 5.8-2.54 5.8-5.67s-2.6-5.68-5.8-5.68-5.79 2.55-5.79 5.68 2.6 5.68 5.79 5.68m2.34 4.63a11 11 0 0 0 3.37-1.37 1.64 1.64 0 0 0 .53-2.3 1.7 1.7 0 0 0-2.34-.52 7.5 7.5 0 0 1-7.8 0 1.7 1.7 0 0 0-2.34.53 1.64 1.64 0 0 0 .53 2.29 11 11 0 0 0 3.37 1.37l-3.24 3.17a1.64 1.64 0 0 0 0 2.35 1.73 1.73 0 0 0 2.4 0l3.18-3.12 3.18 3.12a1.7 1.7 0 0 0 2.4 0 1.64 1.64 0 0 0 0-2.35z"/></symbol><use xlink:href="#sprite-odnoklassniki" width="22" height="22" y="576"/><view id="sprite-odnoklassniki-view" viewBox="0 576 22 22"/><symbol id="sprite-pin" fill="none" viewBox="0 0 22 22"><path fill="#316DC2" fill-rule="evenodd" d="M7.04 1.03a8.1 8.1 0 0 1 8.04.06 8 8 0 0 1 3.92 6.9c-.06 2.8-1.65 5.42-3.65 7.45a21 21 0 0 1-3.84 3.1q-.22.12-.46.16a1 1 0 0 1-.45-.13 21 21 0 0 1-5.53-5 10 10 0 0 1-2.07-5.72 7.8 7.8 0 0 1 4.04-6.82m1.44 7.98a2.7 2.7 0 0 0 2.51 1.65 2.7 2.7 0 0 0 1.93-.77 2.6 2.6 0 0 0 .79-1.88 2.7 2.7 0 0 0-1.67-2.47 2.8 2.8 0 0 0-2.97.57 2.6 2.6 0 0 0-.59 2.9" clip-rule="evenodd"/><path fill="#316DC2" d="M16.71 20.9c0 .6-2.55 1.1-5.71 1.1s-5.71-.5-5.71-1.1 2.55-1.1 5.71-1.1 5.71.5 5.71 1.1"/></symbol><use xlink:href="#sprite-pin" width="22" height="22" y="598"/><view id="sprite-pin-view" viewBox="0 598 22 22"/><symbol id="sprite-plus" fill="none" viewBox="0 0 22 22"><path d="M11 1v10m0 0v10m0-10h-10m10 0h10"/></symbol><use xlink:href="#sprite-plus" width="22" height="22" y="620"/><view id="sprite-plus-view" viewBox="0 620 22 22"/><symbol id="sprite-star" viewBox="0 0 22 22"><path d="m11 0 3.01 5.48 5.99.02-2.97 5.5 2.97 5.5-5.99.03-3.01 5.47-3.01-5.47-5.99-.03 2.97-5.5-2.97-5.5 5.99-.02z"/></symbol><use xlink:href="#sprite-star" width="22" height="22" y="642"/><view id="sprite-star-view" viewBox="0 642 22 22"/><symbol id="sprite-vk" viewBox="0 0 22 22"><path d="M21.8 15.7c-.06-.1-.42-.85-2.18-2.41-1.84-1.64-1.6-1.37.62-4.2 1.36-1.72 1.9-2.77 1.73-3.22-.16-.43-1.16-.32-1.16-.32l-3.3.02s-.25-.03-.43.07-.3.34-.3.34-.52 1.33-1.22 2.47c-1.47 2.39-2.06 2.51-2.3 2.37-.56-.35-.42-1.4-.42-2.14 0-2.31.37-3.28-.72-3.53a6 6 0 0 0-1.54-.15c-1.18 0-2.18 0-2.74.27-.38.18-.67.57-.5.6.22.02.72.12.98.46.34.44.33 1.43.33 1.43s.2 2.73-.46 3.07c-.44.23-1.06-.24-2.37-2.41-.67-1.11-1.18-2.34-1.18-2.34s-.1-.23-.27-.35a1.4 1.4 0 0 0-.51-.2l-3.14.02s-.47.01-.65.2c-.15.18-.01.54-.01.54s2.46 5.5 5.25 8.28c2.55 2.55 5.46 2.38 5.46 2.38h1.3s.4-.04.6-.25.19-.55.19-.55-.03-1.69.8-1.94c.8-.24 1.84 1.63 2.93 2.35.83.55 1.47.43 1.47.43l2.94-.04s1.53-.1.8-1.25"/></symbol><use xlink:href="#sprite-vk" width="22" height="22" y="664"/><view id="sprite-vk-view" viewBox="0 664 22 22"/></svg>